<svg width="1116" height="299" viewBox="0 0 1116 299" fill="none" xmlns="http://www.w3.org/2000/svg">
<mask id="mask0_1990_4977" style="mask-type:alpha" maskUnits="userSpaceOnUse" x="0" y="0" width="1116" height="300">
<path d="M557.673 84.652L1115.35 84.6521" stroke="white" stroke-opacity="0.5" stroke-width="0.557672" stroke-miterlimit="10"/>
<path d="M557.673 98.5939L1115.35 98.594" stroke="white" stroke-opacity="0.5" stroke-width="0.557672" stroke-miterlimit="10"/>
<path d="M557.673 70.7097L1115.35 70.7098" stroke="white" stroke-opacity="0.5" stroke-width="0.557672" stroke-miterlimit="10"/>
<path d="M557.673 28.8844L1115.35 28.8845" stroke="white" stroke-opacity="0.5" stroke-width="0.557672" stroke-miterlimit="10"/>
<path d="M557.673 42.8262L1115.35 42.8263" stroke="white" stroke-opacity="0.5" stroke-width="0.557672" stroke-miterlimit="10"/>
<path d="M557.673 14.9425L1115.35 14.9426" stroke="white" stroke-opacity="0.5" stroke-width="0.557672" stroke-miterlimit="10"/>
<path d="M557.673 196.187L1115.35 196.187" stroke="white" stroke-opacity="0.5" stroke-width="0.557672" stroke-miterlimit="10"/>
<path d="M557.673 210.128L1115.35 210.129" stroke="white" stroke-opacity="0.5" stroke-width="0.557672" stroke-miterlimit="10"/>
<path d="M557.673 182.245L1115.35 182.245" stroke="white" stroke-opacity="0.5" stroke-width="0.557672" stroke-miterlimit="10"/>
<path d="M557.673 140.42L1115.35 140.42" stroke="white" stroke-opacity="0.5" stroke-width="0.557672" stroke-miterlimit="10"/>
<path d="M557.673 154.362L1115.35 154.362" stroke="white" stroke-opacity="0.5" stroke-width="0.557672" stroke-miterlimit="10"/>
<path d="M557.673 126.478L1115.35 126.478" stroke="white" stroke-opacity="0.5" stroke-width="0.557672" stroke-miterlimit="10"/>
<path d="M557.673 251.954L1115.35 251.954" stroke="white" stroke-opacity="0.5" stroke-width="0.557672" stroke-miterlimit="10"/>
<path d="M557.673 265.896L1115.35 265.896" stroke="white" stroke-opacity="0.5" stroke-width="0.557672" stroke-miterlimit="10"/>
<path d="M557.673 238.012L1115.35 238.012" stroke="white" stroke-opacity="0.5" stroke-width="0.557672" stroke-miterlimit="10"/>
<path d="M641.323 298.999L641.323 1.00106" stroke="white" stroke-opacity="0.5" stroke-width="0.55767" stroke-miterlimit="10"/>
<path d="M655.266 298.999L655.266 1.00094" stroke="white" stroke-opacity="0.5" stroke-width="0.55767" stroke-miterlimit="10"/>
<path d="M627.382 298.999L627.382 1.00106" stroke="white" stroke-opacity="0.5" stroke-width="0.55767" stroke-miterlimit="10"/>
<path d="M585.557 298.999L585.557 1.00106" stroke="white" stroke-opacity="0.5" stroke-width="0.55767" stroke-miterlimit="10"/>
<path d="M599.499 298.999L599.499 1.00106" stroke="white" stroke-opacity="0.5" stroke-width="0.55767" stroke-miterlimit="10"/>
<path d="M571.615 298.999L571.615 1.00106" stroke="white" stroke-opacity="0.5" stroke-width="0.55767" stroke-miterlimit="10"/>
<path d="M752.858 298.999L752.858 1.00094" stroke="white" stroke-opacity="0.5" stroke-width="0.55767" stroke-miterlimit="10"/>
<path d="M766.799 298.999L766.799 1.00094" stroke="white" stroke-opacity="0.5" stroke-width="0.55767" stroke-miterlimit="10"/>
<path d="M738.915 298.999L738.915 1.00106" stroke="white" stroke-opacity="0.5" stroke-width="0.55767" stroke-miterlimit="10"/>
<path d="M697.091 298.999L697.091 1.00106" stroke="white" stroke-opacity="0.5" stroke-width="0.55767" stroke-miterlimit="10"/>
<path d="M711.032 298.999L711.032 1.00106" stroke="white" stroke-opacity="0.5" stroke-width="0.55767" stroke-miterlimit="10"/>
<path d="M683.148 298.999L683.149 1.00094" stroke="white" stroke-opacity="0.5" stroke-width="0.55767" stroke-miterlimit="10"/>
<path d="M864.392 299L864.392 1.00073" stroke="white" stroke-opacity="0.5" stroke-width="0.557671" stroke-miterlimit="10"/>
<path d="M878.334 298.999L878.334 1.00098" stroke="white" stroke-opacity="0.5" stroke-width="0.55767" stroke-miterlimit="10"/>
<path d="M850.451 298.999L850.451 1.0012" stroke="white" stroke-opacity="0.5" stroke-width="0.55767" stroke-miterlimit="10"/>
<path d="M808.625 298.999L808.625 1.00106" stroke="white" stroke-opacity="0.5" stroke-width="0.55767" stroke-miterlimit="10"/>
<path d="M822.565 298.999L822.566 1.00106" stroke="white" stroke-opacity="0.5" stroke-width="0.55767" stroke-miterlimit="10"/>
<path d="M794.684 298.999L794.684 1.00106" stroke="white" stroke-opacity="0.5" stroke-width="0.55767" stroke-miterlimit="10"/>
<path d="M975.927 299L975.927 1.0003" stroke="white" stroke-opacity="0.5" stroke-width="0.557671" stroke-miterlimit="10"/>
<path d="M989.869 298.999L989.869 1.00109" stroke="white" stroke-opacity="0.5" stroke-width="0.557673" stroke-miterlimit="10"/>
<path d="M961.984 299L961.984 1.00034" stroke="white" stroke-opacity="0.5" stroke-width="0.557673" stroke-miterlimit="10"/>
<path d="M920.159 299L920.159 1.00034" stroke="white" stroke-opacity="0.5" stroke-width="0.557671" stroke-miterlimit="10"/>
<path d="M934.102 299L934.102 1.00037" stroke="white" stroke-opacity="0.5" stroke-width="0.55767" stroke-miterlimit="10"/>
<path d="M906.217 299L906.217 1.00084" stroke="white" stroke-opacity="0.5" stroke-width="0.557671" stroke-miterlimit="10"/>
<path d="M1087.46 299L1087.46 1.00038" stroke="white" stroke-opacity="0.5" stroke-width="0.557672" stroke-miterlimit="10"/>
<path d="M1101.4 299L1101.4 1.00055" stroke="white" stroke-opacity="0.5" stroke-width="0.557671" stroke-miterlimit="10"/>
<path d="M1073.52 299L1073.52 1.00049" stroke="white" stroke-opacity="0.5" stroke-width="0.557671" stroke-miterlimit="10"/>
<path d="M1031.69 299L1031.69 1.00055" stroke="white" stroke-opacity="0.5" stroke-width="0.557673" stroke-miterlimit="10"/>
<path d="M1045.64 299L1045.64 1.00056" stroke="white" stroke-opacity="0.5" stroke-width="0.557673" stroke-miterlimit="10"/>
<path d="M1017.75 299L1017.75 1.00055" stroke="white" stroke-opacity="0.5" stroke-width="0.557673" stroke-miterlimit="10"/>
<path d="M557.673 56.7678L1115.35 56.7679" stroke="white" stroke-width="0.836509" stroke-miterlimit="10"/>
<path d="M557.673 112.536L1115.35 112.536" stroke="white" stroke-width="0.836509" stroke-miterlimit="10"/>
<path d="M557.673 1.00061L1115.35 1.00071" stroke="white" stroke-width="0.836509" stroke-miterlimit="10"/>
<path d="M557.673 168.303L1115.35 168.303" stroke="white" stroke-width="0.836509" stroke-miterlimit="10"/>
<path d="M557.673 112.536L1115.35 112.536" stroke="white" stroke-width="0.836509" stroke-miterlimit="10"/>
<path d="M557.673 279.838L1115.35 279.838" stroke="white" stroke-width="0.836509" stroke-miterlimit="10"/>
<path d="M557.673 224.07L1115.35 224.07" stroke="white" stroke-width="0.836509" stroke-miterlimit="10"/>
<path d="M613.439 298.999L613.44 1.00106" stroke="white" stroke-width="0.836505" stroke-miterlimit="10"/>
<path d="M669.206 298.999L669.206 1.00106" stroke="white" stroke-width="0.836505" stroke-miterlimit="10"/>
<path d="M557.673 298.999L557.673 1.00094" stroke="white" stroke-width="0.836505" stroke-miterlimit="10"/>
<path d="M724.974 298.999L724.974 1.00106" stroke="white" stroke-width="0.836505" stroke-miterlimit="10"/>
<path d="M669.206 298.999L669.206 1.00106" stroke="white" stroke-width="0.836505" stroke-miterlimit="10"/>
<path d="M836.508 298.999L836.508 1.00106" stroke="white" stroke-width="0.836505" stroke-miterlimit="10"/>
<path d="M780.741 298.999L780.741 1.00094" stroke="white" stroke-width="0.836505" stroke-miterlimit="10"/>
<path d="M948.043 299L948.043 1.00025" stroke="white" stroke-width="0.836508" stroke-miterlimit="10"/>
<path d="M892.275 298.999L892.275 1.00118" stroke="white" stroke-width="0.836506" stroke-miterlimit="10"/>
<path d="M1059.58 299L1059.58 1.00047" stroke="white" stroke-width="0.836509" stroke-miterlimit="10"/>
<path d="M1003.81 299L1003.81 1.00068" stroke="white" stroke-width="0.836508" stroke-miterlimit="10"/>
<path d="M0 84.6519L557.672 84.652" stroke="white" stroke-opacity="0.5" stroke-width="0.557672" stroke-miterlimit="10"/>
<path d="M0 98.5938L557.672 98.5938" stroke="white" stroke-opacity="0.5" stroke-width="0.557672" stroke-miterlimit="10"/>
<path d="M0 70.7096L557.672 70.7097" stroke="white" stroke-opacity="0.5" stroke-width="0.557672" stroke-miterlimit="10"/>
<path d="M0 28.8843L557.672 28.8844" stroke="white" stroke-opacity="0.5" stroke-width="0.557672" stroke-miterlimit="10"/>
<path d="M0 42.8259L557.672 42.826" stroke="white" stroke-opacity="0.5" stroke-width="0.557672" stroke-miterlimit="10"/>
<path d="M0 14.9424L557.672 14.9425" stroke="white" stroke-opacity="0.5" stroke-width="0.557672" stroke-miterlimit="10"/>
<path d="M0 196.187L557.672 196.187" stroke="white" stroke-opacity="0.5" stroke-width="0.557672" stroke-miterlimit="10"/>
<path d="M0 210.128L557.672 210.128" stroke="white" stroke-opacity="0.5" stroke-width="0.557672" stroke-miterlimit="10"/>
<path d="M0 182.245L557.672 182.245" stroke="white" stroke-opacity="0.5" stroke-width="0.557672" stroke-miterlimit="10"/>
<path d="M0 140.419L557.672 140.42" stroke="white" stroke-opacity="0.5" stroke-width="0.557672" stroke-miterlimit="10"/>
<path d="M0 154.361L557.672 154.362" stroke="white" stroke-opacity="0.5" stroke-width="0.557672" stroke-miterlimit="10"/>
<path d="M0 126.478L557.672 126.478" stroke="white" stroke-opacity="0.5" stroke-width="0.557672" stroke-miterlimit="10"/>
<path d="M0 251.954L557.672 251.954" stroke="white" stroke-opacity="0.5" stroke-width="0.557672" stroke-miterlimit="10"/>
<path d="M0 265.896L557.672 265.896" stroke="white" stroke-opacity="0.5" stroke-width="0.557672" stroke-miterlimit="10"/>
<path d="M0 238.012L557.672 238.012" stroke="white" stroke-opacity="0.5" stroke-width="0.557672" stroke-miterlimit="10"/>
<path d="M83.6504 298.999L83.6505 1.00094" stroke="white" stroke-opacity="0.5" stroke-width="0.55767" stroke-miterlimit="10"/>
<path d="M97.5938 298.999L97.5938 1.00081" stroke="white" stroke-opacity="0.5" stroke-width="0.55767" stroke-miterlimit="10"/>
<path d="M69.7085 298.999L69.7086 1.00094" stroke="white" stroke-opacity="0.5" stroke-width="0.55767" stroke-miterlimit="10"/>
<path d="M27.8833 298.999L27.8834 1.00094" stroke="white" stroke-opacity="0.5" stroke-width="0.55767" stroke-miterlimit="10"/>
<path d="M41.8262 298.999L41.8262 1.00094" stroke="white" stroke-opacity="0.5" stroke-width="0.55767" stroke-miterlimit="10"/>
<path d="M13.9419 298.999L13.942 1.00094" stroke="white" stroke-opacity="0.5" stroke-width="0.55767" stroke-miterlimit="10"/>
<path d="M195.186 298.999L195.186 1.00094" stroke="white" stroke-opacity="0.5" stroke-width="0.55767" stroke-miterlimit="10"/>
<path d="M209.126 298.999L209.127 1.00081" stroke="white" stroke-opacity="0.5" stroke-width="0.55767" stroke-miterlimit="10"/>
<path d="M181.241 298.999L181.241 1.00094" stroke="white" stroke-opacity="0.5" stroke-width="0.55767" stroke-miterlimit="10"/>
<path d="M139.419 298.999L139.419 1.00094" stroke="white" stroke-opacity="0.5" stroke-width="0.55767" stroke-miterlimit="10"/>
<path d="M153.361 298.999L153.361 1.00094" stroke="white" stroke-opacity="0.5" stroke-width="0.55767" stroke-miterlimit="10"/>
<path d="M125.475 298.999L125.475 1.00094" stroke="white" stroke-opacity="0.5" stroke-width="0.55767" stroke-miterlimit="10"/>
<path d="M306.718 298.999L306.718 1.00061" stroke="white" stroke-opacity="0.5" stroke-width="0.557671" stroke-miterlimit="10"/>
<path d="M320.661 298.999L320.661 1.00098" stroke="white" stroke-opacity="0.5" stroke-width="0.55767" stroke-miterlimit="10"/>
<path d="M292.778 298.999L292.778 1.00108" stroke="white" stroke-opacity="0.5" stroke-width="0.55767" stroke-miterlimit="10"/>
<path d="M250.953 298.999L250.953 1.00094" stroke="white" stroke-opacity="0.5" stroke-width="0.55767" stroke-miterlimit="10"/>
<path d="M264.893 298.999L264.893 1.00094" stroke="white" stroke-opacity="0.5" stroke-width="0.55767" stroke-miterlimit="10"/>
<path d="M237.011 298.999L237.011 1.00094" stroke="white" stroke-opacity="0.5" stroke-width="0.55767" stroke-miterlimit="10"/>
<path d="M418.254 299L418.254 1.00017" stroke="white" stroke-opacity="0.5" stroke-width="0.557671" stroke-miterlimit="10"/>
<path d="M432.195 298.999L432.195 1.00097" stroke="white" stroke-opacity="0.5" stroke-width="0.557673" stroke-miterlimit="10"/>
<path d="M404.312 299L404.312 1.00034" stroke="white" stroke-opacity="0.5" stroke-width="0.557673" stroke-miterlimit="10"/>
<path d="M362.486 299L362.486 1.00022" stroke="white" stroke-opacity="0.5" stroke-width="0.557671" stroke-miterlimit="10"/>
<path d="M376.429 299L376.429 1.00025" stroke="white" stroke-opacity="0.5" stroke-width="0.55767" stroke-miterlimit="10"/>
<path d="M348.544 298.999L348.544 1.00071" stroke="white" stroke-opacity="0.5" stroke-width="0.557671" stroke-miterlimit="10"/>
<path d="M529.789 299L529.789 1.00026" stroke="white" stroke-opacity="0.5" stroke-width="0.557672" stroke-miterlimit="10"/>
<path d="M543.731 299L543.732 1.00055" stroke="white" stroke-opacity="0.5" stroke-width="0.557671" stroke-miterlimit="10"/>
<path d="M515.846 299L515.846 1.00049" stroke="white" stroke-opacity="0.5" stroke-width="0.557671" stroke-miterlimit="10"/>
<path d="M474.021 299L474.022 1.00043" stroke="white" stroke-opacity="0.5" stroke-width="0.557673" stroke-miterlimit="10"/>
<path d="M487.963 299L487.963 1.00044" stroke="white" stroke-opacity="0.5" stroke-width="0.557673" stroke-miterlimit="10"/>
<path d="M460.079 299L460.079 1.00043" stroke="white" stroke-opacity="0.5" stroke-width="0.557673" stroke-miterlimit="10"/>
<path d="M0 56.7677L557.672 56.7678" stroke="white" stroke-width="0.836509" stroke-miterlimit="10"/>
<path d="M0 112.536L557.672 112.536" stroke="white" stroke-width="0.836509" stroke-miterlimit="10"/>
<path d="M0 1.00049L557.672 1.00059" stroke="white" stroke-width="0.836509" stroke-miterlimit="10"/>
<path d="M0 168.303L557.672 168.303" stroke="white" stroke-width="0.836509" stroke-miterlimit="10"/>
<path d="M0 112.536L557.672 112.536" stroke="white" stroke-width="0.836509" stroke-miterlimit="10"/>
<path d="M0 279.838L557.672 279.838" stroke="white" stroke-width="0.836509" stroke-miterlimit="10"/>
<path d="M0 224.07L557.672 224.07" stroke="white" stroke-width="0.836509" stroke-miterlimit="10"/>
<path d="M55.7686 298.999L55.7686 1.00094" stroke="white" stroke-width="0.836505" stroke-miterlimit="10"/>
<path d="M111.533 298.999L111.533 1.00094" stroke="white" stroke-width="0.836505" stroke-miterlimit="10"/>
<path d="M167.301 298.999L167.301 1.00094" stroke="white" stroke-width="0.836505" stroke-miterlimit="10"/>
<path d="M111.533 298.999L111.533 1.00094" stroke="white" stroke-width="0.836505" stroke-miterlimit="10"/>
<path d="M278.835 298.999L278.835 1.00094" stroke="white" stroke-width="0.836505" stroke-miterlimit="10"/>
<path d="M223.069 298.999L223.069 1.00081" stroke="white" stroke-width="0.836505" stroke-miterlimit="10"/>
<path d="M390.37 299L390.37 1.00013" stroke="white" stroke-width="0.836508" stroke-miterlimit="10"/>
<path d="M334.604 298.999L334.604 1.00118" stroke="white" stroke-width="0.836506" stroke-miterlimit="10"/>
<path d="M501.906 299L501.906 1.00035" stroke="white" stroke-width="0.836509" stroke-miterlimit="10"/>
<path d="M446.139 299L446.139 1.00056" stroke="white" stroke-width="0.836508" stroke-miterlimit="10"/>
</mask>
<g mask="url(#mask0_1990_4977)">
<ellipse cx="557.5" cy="1.5" rx="557.5" ry="205.5" transform="rotate(-180 557.5 1.5)" fill="url(#paint0_radial_1990_4977)"/>
</g>
<defs>
<radialGradient id="paint0_radial_1990_4977" cx="0" cy="0" r="1" gradientUnits="userSpaceOnUse" gradientTransform="translate(557.5 1.5) rotate(90) scale(205.5 557.5)">
<stop stop-color="#D9D9D9"/>
<stop offset="1" stop-color="#D9D9D9" stop-opacity="0"/>
</radialGradient>
</defs>
</svg>
