<svg width="41" height="41" viewBox="0 0 41 41" fill="none" xmlns="http://www.w3.org/2000/svg">
<path d="M4.23165 26.3885C4.23165 26.3885 8.95635 25.8252 11.1245 22.7912C13.2927 19.7444 11.4708 10.451 19.7841 10.6166C28.0974 10.7823 30.3256 16.8505 29.8791 21.8771C29.4325 26.9038 19.7744 27.7574 19.7744 27.7574C19.7744 27.7574 15.6585 36.4249 11.7042 36.1994" stroke="white" stroke-width="2.98925" stroke-linejoin="bevel"/>
<path d="M26.3457 26.3855C24.2732 26.3062 21.2882 25.437 20.7533 22.4586C20.649 21.8481 21.0399 21.2814 21.6395 21.1929C22.2391 21.1045 22.8257 21.523 22.93 22.1334C23.1388 23.3172 24.1555 23.7274 24.8855 23.9162C25.9283 24.2036 26.958 24.1317 26.971 24.1322C27.5836 24.0937 28.1311 24.5478 28.1964 25.1568C28.2617 25.7657 27.8316 26.3062 27.219 26.357C26.9583 26.3842 26.6585 26.3974 26.3457 26.3855Z" fill="white"/>
<path d="M20.7723 18.2267C21.738 18.264 22.5207 17.6113 22.5205 16.7687C22.5204 15.9261 21.7375 15.2128 20.7719 15.1754C19.8062 15.1381 19.0235 15.7908 19.0237 16.6334C19.0238 17.476 19.8067 18.1893 20.7723 18.2267Z" fill="white"/>
<path d="M20.452 38.8046C30.6427 38.9148 38.9202 30.816 38.9402 20.7153C38.9603 10.6146 30.7153 2.33702 20.5246 2.2268C10.3339 2.11658 2.05649 10.2155 2.03643 20.3161C2.01638 30.4168 10.2613 38.6944 20.452 38.8046Z" stroke="white" stroke-width="2.98925" stroke-miterlimit="10"/>
</svg>
