<svg xmlns="http://www.w3.org/2000/svg" width="1234.719" height="355.705" viewBox="0 0 1234.719 355.705">
  <g id="Group_550" data-name="Group 550" transform="translate(-1321.295 -1438)">
    <path id="Path_1467" data-name="Path 1467" d="M71.147-124.3H105.57v-28.477H71.147v-40.995H27.961v40.995H3.552V-124.3H27.961v81.99c0,9.388,0,16.586.626,24.1,1.878,23.47,13.456,34.11,45.689,34.11A174.589,174.589,0,0,0,102.754,13.7V-14.463c-24.1,1.878-30.042-1.878-31.294-18.15-.313-4.381-.313-9.075-.313-14.708ZM287.7-74.234c0-45.376-26.913-84.18-77.922-84.18s-84.493,37.24-84.493,88.249c0,58.519,35.362,87,81.051,87,39.117,0,70.411-19.715,78.86-58.519H242.011c-2.816,17.837-16.273,28.164-34.736,28.164-20.028,0-35.675-10.953-38.491-46H287.074A128.543,128.543,0,0,0,287.7-74.234ZM207.9-128.06c20.654,0,32.546,14.082,35.362,40.369H170.035C173.791-115.229,187.873-128.06,207.9-128.06ZM393.786-158.1a43.331,43.331,0,0,0-28.477,11.266l-13.143,23.157v-30.355H308.98V12.45h43.185V-63.907c0-44.75,17.837-60.71,53.825-58.207V-156.85A47.228,47.228,0,0,0,393.786-158.1Zm101.705,33.8h34.423v-28.477H495.491v-40.995H452.306v40.995H427.9V-124.3h24.409v81.99c0,9.388,0,16.586.626,24.1,1.878,23.47,13.456,34.11,45.689,34.11A174.59,174.59,0,0,0,527.1,13.7V-14.463c-24.1,1.878-30.042-1.878-31.294-18.15-.313-4.381-.313-9.075-.313-14.708Zm98.263-93.256H550.569v176.5c0,10.953,0,18.776.626,26.287.939,21.593,14.4,29.416,35.675,29.416a237.087,237.087,0,0,0,26.6-1.252V-16.341c-14.708.939-18.463-1.878-19.4-10.327-.313-4.381-.313-8.762-.313-15.334ZM796.538-74.234c0-45.376-26.913-84.18-77.922-84.18s-84.493,37.24-84.493,88.249c0,58.519,35.362,87,81.051,87,39.117,0,70.411-19.715,78.86-58.519H750.849c-2.816,17.837-16.273,28.164-34.736,28.164-20.028,0-35.675-10.953-38.491-46H795.912A128.53,128.53,0,0,0,796.538-74.234Zm-79.8-53.825c20.654,0,32.546,14.082,35.362,40.369H678.873C682.629-115.229,696.711-128.06,716.739-128.06Z" transform="translate(1759.476 1709)"/>
    <g id="emblem" transform="translate(10556 1486)">
      <g id="Group_544" data-name="Group 544" transform="translate(-10967 -1486)">
        <g id="Group_542" data-name="Group 542" transform="translate(10968 1479)">
          <path id="Path_1468" data-name="Path 1468" d="M177.853,0A177.853,177.853,0,1,1,0,177.853,177.853,177.853,0,0,1,177.853,0Z" transform="translate(-9235.705 -41)"/>
          <path id="Path_1460" data-name="Path 1460" d="M152.355,0A152.355,152.355,0,1,1,0,152.355,152.355,152.355,0,0,1,152.355,0Z" transform="translate(-9210.705 -16)" fill="#fff"/>
          <g id="Group_537" data-name="Group 537" transform="translate(-9213.354 41.844)">
            <path id="Path_1409" data-name="Path 1409" d="M625.517-5269.977s44.55-6.358,64.932-36.111,3.141-118.853,81.53-119.01,99.47,57.813,95.244,106.33-95.244,58.661-95.244,58.661-33.877,77.13-71.233,75.869c-1.838-.953-3.65-2-5.654-3.245-12.2-7.6-23.3-15.712-28.293-21.865C639.69-5232.078,625.517-5269.977,625.517-5269.977Z" transform="translate(-623.843 5425.098)" fill="#fff" stroke="#000" stroke-linejoin="bevel" stroke-width="25"/>
            <path id="Path_1410" data-name="Path 1410" d="M884.356-5253.89s-44.085,5.077-49.77-25.918" transform="translate(-668.944 5392.402)" fill="none" stroke="#000" stroke-linecap="round" stroke-width="21"/>
            <ellipse id="Ellipse_28" data-name="Ellipse 28" cx="16.5" cy="15" rx="16.5" ry="15" transform="translate(140.353 42.156)"/>
          </g>
        </g>
      </g>
    </g>
  </g>
</svg>
