<svg xmlns="http://www.w3.org/2000/svg" width="1258.296" height="412.826" viewBox="0 0 1258.296 412.826"><g transform="translate(-1282.32 -1438)"><path d="M67.488-129.352h32.56v-26.936H67.488v-38.776H26.64v38.776H3.552v26.936H26.64V-51.8c0,8.88,0,15.688.592,22.792C29.008-6.808,39.96,3.256,70.448,3.256A165.139,165.139,0,0,0,97.384,1.184v-26.64c-22.792,1.776-28.416-1.776-29.6-17.168-.3-4.144-.3-8.584-.3-13.912ZM272.32-81.992c0-42.92-25.456-79.624-73.7-79.624S118.7-126.392,118.7-78.144c0,55.352,33.448,82.288,76.664,82.288,37,0,66.6-18.648,74.592-55.352H229.1c-2.664,16.872-15.392,26.64-32.856,26.64-18.944,0-33.744-10.36-36.408-43.512H271.728A121.578,121.578,0,0,0,272.32-81.992ZM196.84-132.9c19.536,0,30.784,13.32,33.448,38.184H161.024C164.576-120.768,177.9-132.9,196.84-132.9ZM372.664-161.32a40.985,40.985,0,0,0-26.936,10.656L333.3-128.76v-28.712H292.448V0H333.3V-72.224c0-42.328,16.872-57.424,50.912-55.056v-32.856A44.671,44.671,0,0,0,372.664-161.32Zm96.2,31.968h32.56v-26.936h-32.56v-38.776H428.016v38.776H404.928v26.936h23.088V-51.8c0,8.88,0,15.688.592,22.792,1.776,22.2,12.728,32.264,43.216,32.264A165.139,165.139,0,0,0,498.76,1.184v-26.64c-22.792,1.776-28.416-1.776-29.6-17.168-.3-4.144-.3-8.584-.3-13.912Zm92.944-88.208H520.96V-50.616c0,10.36,0,17.76.592,24.864C522.44-5.328,535.168,2.072,555.3,2.072A224.254,224.254,0,0,0,580.456.888v-28.12c-13.912.888-17.464-1.776-18.352-9.768-.3-4.144-.3-8.288-.3-14.5ZM753.616-81.992c0-42.92-25.456-79.624-73.7-79.624s-79.92,35.224-79.92,83.472c0,55.352,33.448,82.288,76.664,82.288,37,0,66.6-18.648,74.592-55.352H710.4c-2.664,16.872-15.392,26.64-32.856,26.64-18.944,0-33.744-10.36-36.408-43.512H753.024A121.584,121.584,0,0,0,753.616-81.992ZM678.136-132.9c19.536,0,30.784,13.32,33.448,38.184H642.32C645.872-120.768,659.192-132.9,678.136-132.9Z" transform="translate(1787 1735)"/><g transform="translate(10556 1486)"><path d="M37.21-1.52S76.283,57.458,159.728,57.112,280.2-1.52,280.2-1.52c19.588,0,35.962,21.109,35.962,45.274s-33.106,48.32-33.106,48.32-59.6,48.752-120.907,48.752S31.934,90.249,31.934,90.249,0,67.92,0,43.755,17.622-1.52,37.21-1.52Z" transform="translate(-9215.472 224)"/><path d="M54.877,31.041S76.283,57.458,159.728,57.112,263.6,31.041,263.6,31.041c8.514,5.87,14.282,6.555,23.971,24.673s-6.52,30.955-6.52,30.955S224.11,141.575,162.8,141.575,37.623,88.708,37.623,88.708,16.969,72.97,28.9,55.714,47.846,36.361,54.877,31.041Z" transform="translate(-9215.472 198)" fill="#fff"/><path d="M39.222,0C54.5,0,55.34,23.509,55.34,43.257S54.5,77.338,39.222,77.338,0,63.006,0,43.257,23.94,0,39.222,0Z" transform="translate(-8847 175.367) rotate(180)"/><path d="M16.119,0C.837,0,0,23.509,0,43.257S.837,77.338,16.119,77.338,55.34,63.006,55.34,43.257,31.4,0,16.119,0Z" transform="translate(-9218.34 175.367) rotate(180)"/><path d="M5906.911-4484.66v-134.986" transform="translate(-15137 4596.16)" fill="none" stroke="#000" stroke-linecap="round" stroke-width="33"/><g transform="translate(-10967 -1486)"><g transform="translate(10968 1479)"><path d="M177.853,0A177.853,177.853,0,1,1,0,177.853,177.853,177.853,0,0,1,177.853,0Z" transform="translate(-9235.705 -41)"/><path d="M152.355,0A152.355,152.355,0,1,1,0,152.355,152.355,152.355,0,0,1,152.355,0Z" transform="translate(-9210.705 -16)" fill="#b9b9b9"/><g transform="translate(-9213.354 41.844)"><path d="M625.517-5269.977s44.55-6.358,64.932-36.111,3.141-118.853,81.53-119.01,99.47,57.813,95.244,106.33-95.244,58.661-95.244,58.661-33.877,77.13-71.233,75.869c-1.838-.953-3.65-2-5.654-3.245-12.2-7.6-23.3-15.712-28.293-21.865C639.69-5232.078,625.517-5269.977,625.517-5269.977Z" transform="translate(-623.843 5425.098)" fill="#fff" stroke="#000" stroke-linejoin="bevel" stroke-width="25"/><path d="M884.356-5253.89s-44.085,5.077-49.77-25.918" transform="translate(-668.944 5392.402)" fill="none" stroke="#000" stroke-linecap="round" stroke-width="21"/><ellipse cx="16.5" cy="15" rx="16.5" ry="15" transform="translate(140.353 42.156)"/></g></g></g></g></g></svg>