<svg width="41" height="41" viewBox="0 0 41 41" fill="none" xmlns="http://www.w3.org/2000/svg">
<path d="M20.4517 38.7803C30.6424 38.8905 38.9199 30.7916 38.94 20.6909C38.96 10.5902 30.715 2.31265 20.5243 2.20244C10.3336 2.09222 2.05623 10.1911 2.03617 20.2918C2.01611 30.3925 10.261 38.67 20.4517 38.7803Z" stroke="white" stroke-width="2.98925" stroke-miterlimit="10"/>
<path d="M4.2334 26.3641C4.2334 26.3641 8.95811 25.8008 11.1263 22.7668C13.2944 19.7201 11.4725 10.4266 19.7858 10.5923C28.0991 10.7579 30.3274 16.8262 29.8808 21.8528C29.4343 26.8794 19.7762 27.733 19.7762 27.733C19.7762 27.733 15.6603 36.4005 11.706 36.1751" stroke="white" stroke-width="2.98925" stroke-linejoin="bevel"/>
<path d="M26.3465 26.3611C24.274 26.2818 21.289 25.4126 20.7541 22.4342C20.6498 21.8237 21.0407 21.257 21.6403 21.1686C22.2399 21.0801 22.8265 21.4986 22.9309 22.109C23.1396 23.2928 24.1563 23.703 24.8863 23.8918C25.9291 24.1792 26.9588 24.1073 26.9718 24.1078C27.5844 24.0693 28.1319 24.5234 28.1972 25.1324C28.2625 25.7413 27.8324 26.2818 27.2198 26.3326C26.9591 26.3598 26.6593 26.373 26.3465 26.3611Z" fill="white"/>
<path d="M20.7731 18.2023C21.7387 18.2396 22.5214 17.5869 22.5213 16.7443C22.5212 15.9017 21.7382 15.1884 20.7726 15.151C19.807 15.1137 19.0243 15.7665 19.0244 16.609C19.0245 17.4516 19.8074 18.1649 20.7731 18.2023Z" fill="white"/>
</svg>
