<svg width="1107" height="139" viewBox="0 0 1107 139" fill="none" xmlns="http://www.w3.org/2000/svg">
<path opacity="0.08" d="M1107 0.000140514C1107 76.7676 859.19 139 553.5 139C247.81 139 0 76.7676 0 0.000140514C39 0 231.31 0 537 0C842.69 0 1034 0.000140514 1107 0.000140514Z" fill="url(#paint0_radial_1995_2145)"/>
<path opacity="0.08" d="M756 2.93159e-05C756 16.0163 655.712 29 532 29C408.288 29 308 16.0163 308 2.93159e-05C323.783 0 401.611 0 525.322 0C649.034 0 726.457 2.93159e-05 756 2.93159e-05Z" fill="url(#paint1_radial_1995_2145)" fill-opacity="0.8"/>
<defs>
<radialGradient id="paint0_radial_1995_2145" cx="0" cy="0" r="1" gradientUnits="userSpaceOnUse" gradientTransform="translate(553.5 1.65701e-05) rotate(90) scale(139 553.5)">
<stop stop-color="#5F5F5F" stop-opacity="0.8"/>
<stop offset="1" stop-color="#D9D9D9" stop-opacity="0"/>
</radialGradient>
<radialGradient id="paint1_radial_1995_2145" cx="0" cy="0" r="1" gradientUnits="userSpaceOnUse" gradientTransform="translate(532 3.45707e-06) rotate(90) scale(29 224)">
<stop stop-color="#5F5F5F" stop-opacity="0.8"/>
<stop offset="1" stop-color="#D9D9D9" stop-opacity="0"/>
</radialGradient>
</defs>
</svg>
