<svg width="1107" height="141" viewBox="0 0 1107 141" fill="none" xmlns="http://www.w3.org/2000/svg">
<path opacity="0.08" d="M1107 2.00014C1107 78.7676 859.19 141 553.5 141C247.81 141 0 78.7676 0 2.00014C39 2 231.31 2 537 2C842.69 2 1034 2.00014 1107 2.00014Z" fill="url(#paint0_radial_1995_2145)"/>
<path opacity="0.08" d="M756 2.00003C756 18.0163 655.712 31 532 31C408.288 31 308 18.0163 308 2.00003C323.783 2 401.611 2 525.322 2C649.034 2 726.457 2.00003 756 2.00003Z" fill="url(#paint1_radial_1995_2145)"/>
<line x1="82.75" y1="1.25" x2="981.25" y2="1.25008" stroke="url(#paint2_linear_1995_2145)" stroke-width="1.5" stroke-linecap="round"/>
<defs>
<radialGradient id="paint0_radial_1995_2145" cx="0" cy="0" r="1" gradientUnits="userSpaceOnUse" gradientTransform="translate(553.5 2.00002) rotate(90) scale(139 553.5)">
<stop stop-color="#5F5F5F" stop-opacity="0.8"/>
<stop offset="1" stop-color="#D9D9D9" stop-opacity="0"/>
</radialGradient>
<radialGradient id="paint1_radial_1995_2145" cx="0" cy="0" r="1" gradientUnits="userSpaceOnUse" gradientTransform="translate(532 2) rotate(90) scale(29 224)">
<stop stop-color="#5F5F5F" stop-opacity="0.8"/>
<stop offset="1" stop-color="#D9D9D9" stop-opacity="0"/>
</radialGradient>
<linearGradient id="paint2_linear_1995_2145" x1="982" y1="1.99998" x2="82" y2="1.99996" gradientUnits="userSpaceOnUse">
<stop stop-color="#2E2E2E" stop-opacity="0"/>
<stop offset="0.197917" stop-color="#2E2E2E"/>
<stop offset="0.802083" stop-color="#2E2E2E"/>
<stop offset="1" stop-color="#2E2E2E" stop-opacity="0"/>
</linearGradient>
</defs>
</svg>
