<svg width="1150" height="141" viewBox="0 0 1150 141" fill="none" xmlns="http://www.w3.org/2000/svg">
<path opacity="0.08" d="M1150 2.00014C1150 78.7676 902.19 141 596.5 141C290.81 141 43 78.7676 43 2.00014C82 2 274.31 2 580 2C885.69 2 1077 2.00014 1150 2.00014Z" fill="url(#paint0_radial_1995_2145)"/>
<path opacity="0.08" d="M799 2.00003C799 18.0163 698.712 31 575 31C451.288 31 351 18.0163 351 2.00003C366.783 2 444.611 2 568.322 2C692.034 2 769.457 2.00003 799 2.00003Z" fill="url(#paint1_radial_1995_2145)" fill-opacity="0.8"/>
<line x1="0.75" y1="1.25" x2="1149.25" y2="1.2501" stroke="url(#paint2_linear_1995_2145)" stroke-width="1.5" stroke-linecap="round"/>
<defs>
<radialGradient id="paint0_radial_1995_2145" cx="0" cy="0" r="1" gradientUnits="userSpaceOnUse" gradientTransform="translate(596.5 2.00002) rotate(90) scale(139 553.5)">
<stop stop-color="#5F5F5F" stop-opacity="0.8"/>
<stop offset="1" stop-color="#D9D9D9" stop-opacity="0"/>
</radialGradient>
<radialGradient id="paint1_radial_1995_2145" cx="0" cy="0" r="1" gradientUnits="userSpaceOnUse" gradientTransform="translate(575 2) rotate(90) scale(29 224)">
<stop stop-color="#5F5F5F" stop-opacity="0.8"/>
<stop offset="1" stop-color="#D9D9D9" stop-opacity="0"/>
</radialGradient>
<linearGradient id="paint2_linear_1995_2145" x1="1150" y1="2" x2="0" y2="2" gradientUnits="userSpaceOnUse">
<stop stop-color="#2E2E2E" stop-opacity="0"/>
<stop offset="0.197917" stop-color="#2E2E2E"/>
<stop offset="0.802083" stop-color="#2E2E2E"/>
<stop offset="1" stop-color="#2E2E2E" stop-opacity="0"/>
</linearGradient>
</defs>
</svg>
