<svg xmlns="http://www.w3.org/2000/svg" width="69.349" height="26" viewBox="0 0 69.349 26"><g transform="translate(283 301)"><path d="M.243,0H10.1V-3.321h-2v-3.7h4.32v-3.915H8.1v-4.239h3.888l.54,2.727h3.645V-18.9H.243v3.456h.783a.95.95,0,0,1,.756.756V-4.1a.981.981,0,0,1-.756.783H.243ZM16.524,0h9.855V-3.321h-2v-3.7H28.7v-3.915h-4.32v-4.239h3.888l.54,2.727h3.645V-18.9H16.524v3.456h.783a.95.95,0,0,1,.756.756V-4.1a.981.981,0,0,1-.756.783h-.783Z" transform="translate(-246.105 -276.259)" fill="#4d4d4d"/><g transform="translate(-475 -350)"><rect width="19" height="20" transform="translate(198 55)" fill="#1477ff"/></g><g transform="translate(79 -6)"><rect width="3" height="19" transform="translate(-362 -295)" fill="#4d4d4d"/><rect width="3" height="20" transform="translate(-342 -295) rotate(90)" fill="#4d4d4d"/></g></g></svg>