<svg xmlns="http://www.w3.org/2000/svg" width="232.375" height="26" viewBox="0 0 232.375 26"><g transform="translate(283 354)"><path d="M.243,0H10.1V-3.321h-2v-3.7h4.32v-3.915H8.1v-4.239h3.888l.54,2.727h3.645V-18.9H.243v3.456h.783a.95.95,0,0,1,.756.756V-4.1a.981.981,0,0,1-.756.783H.243ZM16.47,0h8.64V-3.321h-.7A.867.867,0,0,1,23.733-4v-8.883c0-.891-.3-1.377-.837-1.377H16.389v3.537h.783a.872.872,0,0,1,.648.675V-4a.836.836,0,0,1-.648.675h-.7Zm4.293-14.823a2.508,2.508,0,0,0,2.754-2.511A2.534,2.534,0,0,0,20.763-19.9a2.526,2.526,0,0,0-2.727,2.565A2.5,2.5,0,0,0,20.763-14.823ZM25.326,0h8.829V-3.321H32.562v-6.723a10.085,10.085,0,0,1,1.107-.081c1.215,0,1.728.216,1.728,1.269V0H42.39V-3.321h-.432A.867.867,0,0,1,41.283-4v-7.128c0-2.619-1.782-3.4-3.672-3.4a6.861,6.861,0,0,0-5.13,2.241c-.135-1.566-.513-1.971-1.053-1.971H25.245v3.537H26a.867.867,0,0,1,.675.675V-4A.905.905,0,0,1,26-3.321h-.675ZM48.384.27A5.153,5.153,0,0,0,52.3-1.3c.189.783.459,1.3.864,1.3h6.156V-3.321h-.648A.872.872,0,0,1,58.023-4V-17.712c0-.7-.324-1.188-.864-1.188H50.733v3.456H52.11v2.754A4.658,4.658,0,0,0,48.3-14.526c-3,0-5.778,2-5.778,7.4C42.525-1.755,44.928.27,48.384.27Zm2.268-3.618c-1.161,0-2.16-.756-2.16-3.645,0-2.754,1.053-3.348,2.349-3.348a4.636,4.636,0,0,1,1.269.189v6.4A2.725,2.725,0,0,1,50.652-3.348ZM74.115-5.859c0-.189.054-.729.054-1.4,0-4.995-2.268-7.263-7.1-7.263-4.779,0-7.722,2.916-7.722,7.479,0,4.509,2.241,7.29,7.8,7.29a12.774,12.774,0,0,0,6.453-1.3V-4.482H70.5A3.068,3.068,0,0,1,67.77-3.267c-1.62,0-2.322-.783-2.511-2.592Zm-7.047-5.292c1.026,0,1.485.675,1.62,2.511h-3.4C65.475-10.476,66.015-11.151,67.068-11.151ZM74.439,0H83.16V-3.321H81.675V-9.45a14.642,14.642,0,0,1,3.861-.432h.594v-4.374a2.463,2.463,0,0,0-.864-.162,4.233,4.233,0,0,0-3.672,2.106c-.135-1.539-.513-1.944-1.053-1.944H74.358v3.537h.756a.905.905,0,0,1,.675.675V-4a.867.867,0,0,1-.675.675h-.675ZM86.616,0h9.855V-3.321h-2v-3.7h4.32v-3.915h-4.32v-4.239h3.888l.54,2.727h3.645V-18.9H86.616v3.456H87.4a.95.95,0,0,1,.756.756V-4.1a.981.981,0,0,1-.756.783h-.783Zm22.626.243c4.644,0,7.992-2.754,7.992-7.29,0-4.563-3.348-7.479-7.992-7.479-4.671,0-8.019,2.916-8.019,7.479C101.223-2.511,104.571.243,109.242.243Zm0-3.51c-1.242,0-2.052-1.161-2.052-3.753,0-2.565.81-3.672,2.052-3.672,1.215,0,2.025,1.107,2.025,3.672C111.267-4.428,110.457-3.267,109.242-3.267ZM122.31.243a6.529,6.529,0,0,0,5-2.187c.162,1.539.54,1.944,1.08,1.944h6.048V-3.321h-.621A.872.872,0,0,1,133.164-4v-10.26H125.82v3.537h1.431v6.588a6.232,6.232,0,0,1-1.053.108c-1.188,0-1.755-.243-1.755-1.35v-8.883h-7.128v3.537h.567a.873.873,0,0,1,.648.675v6.885C118.53-.54,120.42.243,122.31.243ZM134.676,0h8.829V-3.321h-1.593v-6.723a10.085,10.085,0,0,1,1.107-.081c1.215,0,1.728.216,1.728,1.269V0h6.993V-3.321h-.432A.867.867,0,0,1,150.633-4v-7.128c0-2.619-1.782-3.4-3.672-3.4a6.861,6.861,0,0,0-5.13,2.241c-.135-1.566-.513-1.971-1.053-1.971H134.6v3.537h.756a.867.867,0,0,1,.675.675V-4a.905.905,0,0,1-.675.675h-.675Zm23.058.27A5.153,5.153,0,0,0,161.649-1.3c.189.783.459,1.3.864,1.3h6.156V-3.321h-.648A.872.872,0,0,1,167.373-4V-17.712c0-.7-.324-1.188-.864-1.188h-6.426v3.456h1.377v2.754a4.658,4.658,0,0,0-3.807-1.836c-3,0-5.778,2-5.778,7.4C151.875-1.755,154.278.27,157.734.27ZM160-3.348c-1.161,0-2.16-.756-2.16-3.645,0-2.754,1.053-3.348,2.349-3.348a4.636,4.636,0,0,1,1.269.189v6.4A2.725,2.725,0,0,1,160-3.348Zm23.463-2.511c0-.189.054-.729.054-1.4,0-4.995-2.268-7.263-7.1-7.263-4.779,0-7.722,2.916-7.722,7.479,0,4.509,2.241,7.29,7.8,7.29a12.774,12.774,0,0,0,6.453-1.3V-4.482h-3.105a3.068,3.068,0,0,1-2.727,1.215c-1.62,0-2.322-.783-2.511-2.592Zm-7.047-5.292c1.026,0,1.485.675,1.62,2.511h-3.4C174.825-10.476,175.365-11.151,176.418-11.151ZM183.789,0h8.721V-3.321h-1.485V-9.45a14.642,14.642,0,0,1,3.861-.432h.594v-4.374a2.463,2.463,0,0,0-.864-.162,4.233,4.233,0,0,0-3.672,2.106c-.135-1.539-.513-1.944-1.053-1.944h-6.183v3.537h.756a.905.905,0,0,1,.675.675V-4a.867.867,0,0,1-.675.675h-.675Z" transform="translate(-246.105 -329.259)" fill="#fff"/><g transform="translate(-475 -403)"><rect width="19" height="20" transform="translate(198 55)" fill="#fff"/></g><g transform="translate(79 -59)"><rect width="3" height="19" transform="translate(-362 -295)" fill="#fff"/><rect width="3" height="20" transform="translate(-342 -295) rotate(90)" fill="#fff"/></g></g></svg>