<svg xmlns="http://www.w3.org/2000/svg" width="1140.321" height="355.705" viewBox="0 0 1140.321 355.705">
  <g id="Group_545" data-name="Group 545" transform="translate(-1321.295 -1438)">
    <path id="Path_1467" data-name="Path 1467" d="M63.782-134.465H94.455v-25.375H63.782v-36.528H25.3v36.528H3.552v25.375H25.3v73.057c0,8.365,0,14.779.558,21.471C27.532-19.024,37.85-9.543,66.571-9.543A155.567,155.567,0,0,0,91.945-11.5v-25.1c-21.471,1.673-26.769-1.673-27.884-16.173-.279-3.9-.279-8.086-.279-13.106ZM256.741-89.85c0-40.432-23.98-75.009-69.432-75.009s-75.288,33.182-75.288,78.634c0,52.144,31.509,77.518,72.22,77.518,34.855,0,62.74-17.567,70.268-52.144H216.03c-2.51,15.894-14.5,25.1-30.952,25.1-17.846,0-31.788-9.76-34.3-40.99h105.4A114.535,114.535,0,0,0,256.741-89.85Zm-71.1-47.961c18.4,0,29,12.548,31.509,35.971H151.9C155.243-126.378,167.791-137.811,185.636-137.811ZM351.269-164.58a38.61,38.61,0,0,0-25.375,10.038l-11.711,20.634v-27.048H275.7V-12.61h38.48V-80.648c0-39.875,15.894-54.1,47.961-51.865v-30.952A42.082,42.082,0,0,0,351.269-164.58Zm90.624,30.115h30.673v-25.375H441.893v-36.528h-38.48v36.528h-21.75v25.375h21.75v73.057c0,8.365,0,14.779.558,21.471,1.673,20.913,11.99,30.394,40.711,30.394A155.568,155.568,0,0,0,470.056-11.5v-25.1c-21.471,1.673-26.769-1.673-27.884-16.173-.279-3.9-.279-8.086-.279-13.106Zm87.557-83.1H490.97V-60.293c0,9.76,0,16.731.558,23.423.837,19.24,12.827,26.211,31.788,26.211a211.255,211.255,0,0,0,23.7-1.115v-26.49c-13.106.837-16.452-1.673-17.288-9.2-.279-3.9-.279-7.808-.279-13.663ZM710.14-89.85c0-40.432-23.98-75.009-69.432-75.009s-75.288,33.182-75.288,78.634c0,52.144,31.509,77.518,72.22,77.518,34.855,0,62.74-17.567,70.268-52.144h-38.48c-2.51,15.894-14.5,25.1-30.952,25.1-17.846,0-31.788-9.76-34.3-40.99h105.4A114.535,114.535,0,0,0,710.14-89.85Zm-71.1-47.961c18.4,0,29,12.548,31.509,35.971H605.3C608.641-126.378,621.189-137.811,639.035-137.811Z" transform="translate(1751.476 1713)"/>
    <g id="emblem" transform="translate(10556 1486)">
      <g id="Group_544" data-name="Group 544" transform="translate(-10967 -1486)">
        <g id="Group_542" data-name="Group 542" transform="translate(10968 1479)">
          <path id="Path_1468" data-name="Path 1468" d="M177.853,0A177.853,177.853,0,1,1,0,177.853,177.853,177.853,0,0,1,177.853,0Z" transform="translate(-9235.705 -41)"/>
          <path id="Path_1460" data-name="Path 1460" d="M152.355,0A152.355,152.355,0,1,1,0,152.355,152.355,152.355,0,0,1,152.355,0Z" transform="translate(-9210.705 -16)" fill="#fff"/>
          <g id="Group_537" data-name="Group 537" transform="translate(-9213.354 41.844)">
            <path id="Path_1409" data-name="Path 1409" d="M625.517-5269.977s44.55-6.358,64.932-36.111,3.141-118.853,81.53-119.01,99.47,57.813,95.244,106.33-95.244,58.661-95.244,58.661-33.877,77.13-71.233,75.869c-1.838-.953-3.65-2-5.654-3.245-12.2-7.6-23.3-15.712-28.293-21.865C639.69-5232.078,625.517-5269.977,625.517-5269.977Z" transform="translate(-623.843 5425.098)" fill="#fff" stroke="#000" stroke-linejoin="bevel" stroke-width="25"/>
            <path id="Path_1410" data-name="Path 1410" d="M884.356-5253.89s-44.085,5.077-49.77-25.918" transform="translate(-668.944 5392.402)" fill="none" stroke="#000" stroke-linecap="round" stroke-width="21"/>
            <ellipse id="Ellipse_28" data-name="Ellipse 28" cx="16.5" cy="15" rx="16.5" ry="15" transform="translate(140.353 42.156)"/>
          </g>
        </g>
      </g>
    </g>
  </g>
</svg>
