<svg xmlns="http://www.w3.org/2000/svg" width="335.535" height="726.546" viewBox="0 0 335.535 726.546"><g transform="translate(0 -72)" fill="none"><path d="M299.745,798.546H35.79A35.76,35.76,0,0,1,0,762.756V107.791A35.76,35.76,0,0,1,35.79,72h34a4.48,4.48,0,0,1,4.473,4.394v2.765A19.669,19.669,0,0,0,93.949,98.843H243.375a17.881,17.881,0,0,0,17.9-17.9V76.473A4.48,4.48,0,0,1,265.739,72h34.006a35.761,35.761,0,0,1,35.79,35.791V762.756a35.76,35.76,0,0,1-35.79,35.79Z" stroke="none"/><path d="M 299.7449035644531 797.546142578125 C 304.4420776367188 797.546142578125 308.9981689453125 796.62646484375 313.2867126464844 794.8126220703125 C 317.429443359375 793.0604248046875 321.1500854492188 790.5518188476562 324.3453369140625 787.3565063476562 C 327.5407104492188 784.1612548828125 330.0492553710938 780.4405517578125 331.8014526367188 776.2977905273438 C 333.6153564453125 772.0093383789062 334.5350646972656 767.4532470703125 334.5350646972656 762.7560424804688 L 334.5350646972656 107.7909774780273 C 334.5350646972656 103.0937957763672 333.6153564453125 98.53762054443359 331.8014526367188 94.24906921386719 C 330.0493469238281 90.10643768310547 327.5407104492188 86.38570404052734 324.3453369140625 83.19016265869141 C 321.1500854492188 79.99461364746094 317.4293518066406 77.48589324951172 313.2867126464844 75.73371124267578 C 308.9979858398438 73.91970825195312 304.44189453125 72.99997711181641 299.7449035644531 72.99997711181641 L 265.7403564453125 72.99997711181641 C 263.8268127441406 73.00198364257812 262.2699890136719 74.56007385253906 262.2699890136719 76.47334289550781 L 262.2699890136719 79.15898132324219 L 262.2699890136719 80.94752502441406 C 262.2699890136719 83.49788665771484 261.7703552246094 85.97252655029297 260.7847900390625 88.30279541015625 C 259.8330688476562 90.552978515625 258.4707946777344 92.57370758056641 256.7358093261719 94.30889129638672 C 255.0008087158203 96.04389190673828 252.9802551269531 97.40625 250.7301635742188 98.35807037353516 C 248.4000701904297 99.34370422363281 245.9254455566406 99.84343719482422 243.3749847412109 99.84343719482422 L 93.94944000244141 99.84343719482422 C 91.15725708007812 99.84343719482422 88.44834899902344 99.29634094238281 85.89789581298828 98.21743774414062 C 83.43480682373047 97.17552947998047 81.22280883789062 95.68416595458984 79.32334899902344 93.78461456298828 C 77.42398834228516 91.88534545898438 75.93271636962891 89.67316436767578 74.89089965820312 87.20980072021484 C 73.81208038330078 84.65898132324219 73.26507568359375 81.9500732421875 73.26507568359375 79.15825653076172 L 73.26507568359375 76.40216827392578 C 73.24636840820312 75.49275970458984 72.87747955322266 74.63941955566406 72.22571563720703 73.99834442138672 C 71.5711669921875 73.35452270507812 70.70680236816406 72.99997711181641 69.79171752929688 72.99997711181641 L 35.79007720947266 72.99997711181641 C 31.09307861328125 72.99997711181641 26.53707695007324 73.91970825195312 22.24844169616699 75.73371124267578 C 18.10589599609375 77.48580169677734 14.38516902923584 79.99452209472656 11.1897144317627 83.19016265869141 C 7.994350433349609 86.38570404052734 5.485713958740234 90.10643768310547 3.733623266220093 94.24906921386719 C 1.919714212417603 98.53762054443359 0.9999868869781494 103.0937957763672 0.9999868869781494 107.7909774780273 L 0.9999868869781494 762.7560424804688 C 0.9999868869781494 767.4532470703125 1.919714212417603 772.0093383789062 3.733623266220093 776.2977905273438 C 5.485805034637451 780.4405517578125 7.994350433349609 784.1612548828125 11.1897144317627 787.3565063476562 C 14.38498687744141 790.5518188476562 18.10562324523926 793.0604248046875 22.24844169616699 794.8126220703125 C 26.53689575195312 796.62646484375 31.0928955078125 797.546142578125 35.79007720947266 797.546142578125 L 299.7449035644531 797.546142578125 M 299.7449035644531 798.546142578125 L 35.79007720947266 798.546142578125 C 30.95844078063965 798.546142578125 26.27125930786133 797.5999145507812 21.85889625549316 795.733642578125 C 17.59680557250977 793.9309692382812 13.7693510055542 791.3504638671875 10.48262310028076 788.0635986328125 C 7.195805072784424 784.7769165039062 4.615168571472168 780.9492797851562 2.812623262405396 776.6873168945312 C 0.9463505148887634 772.2750854492188 -1.310591233050218e-05 767.587890625 -1.310591233050218e-05 762.7560424804688 L -1.310591233050218e-05 107.7909774780273 C -1.310591233050218e-05 102.9591598510742 0.9463505148887634 98.27188873291016 2.812623262405396 93.85952758789062 C 4.615077972412109 89.59780120849609 7.195623397827148 85.77016448974609 10.48262310028076 82.48307037353516 C 13.76962280273438 79.19589233398438 17.59707832336426 76.61524963378906 21.85889625549316 74.81270599365234 C 26.2713508605957 72.94634246826172 30.95844078063965 71.99997711181641 35.79007720947266 71.99997711181641 L 69.79171752929688 71.99997711181641 C 70.97080230712891 71.99997711181641 72.08425903320312 72.45652770996094 72.92698669433594 73.28543853759766 C 73.76880645751953 74.11343383789062 74.24398803710938 75.2171630859375 74.26507568359375 76.39361572265625 L 74.26507568359375 79.15825653076172 C 74.26507568359375 81.81552886962891 74.78553009033203 84.3934326171875 75.81189727783203 86.82025146484375 C 76.80326080322266 89.16434478759766 78.22262573242188 91.26970672607422 80.03044128417969 93.07752227783203 C 81.83843994140625 94.88552856445312 83.94362640380859 96.30497741699219 86.28744506835938 97.29643249511719 C 88.71408081054688 98.32298278808594 91.29198455810547 98.84343719482422 93.94944000244141 98.84343719482422 L 243.3749847412109 98.84343719482422 C 245.7906188964844 98.84343719482422 248.1342620849609 98.37034606933594 250.3406219482422 97.43707275390625 C 252.4716186523438 96.53561401367188 254.3853454589844 95.24516296386719 256.0287170410156 93.60179901123047 C 257.6720886230469 91.958251953125 258.9624328613281 90.04434204101562 259.8638000488281 87.91325378417969 C 260.7969055175781 85.70688629150391 261.2699890136719 83.36334228515625 261.2699890136719 80.94752502441406 L 261.2699890136719 79.15898132324219 L 261.2699890136719 76.47334289550781 C 261.2699890136719 74.00925445556641 263.27490234375 72.00252532958984 265.7393493652344 71.99997711181641 L 299.7449035644531 71.99997711181641 C 304.5765380859375 71.99997711181641 309.2637023925781 72.94634246826172 313.67626953125 74.81270599365234 C 317.93798828125 76.61524963378906 321.7655334472656 79.19589233398438 325.0524291992188 82.48307037353516 C 328.3394470214844 85.77016448974609 330.9199829101562 89.59780120849609 332.7224426269531 93.85952758789062 C 334.5887145996094 98.27188873291016 335.5350646972656 102.9591598510742 335.5350646972656 107.7909774780273 L 335.5350646972656 762.7560424804688 C 335.5350646972656 767.587890625 334.5887145996094 772.2750854492188 332.7224426269531 776.6873168945312 C 330.9198913574219 780.9492797851562 328.3392639160156 784.7769165039062 325.0524291992188 788.0635986328125 C 321.7657165527344 791.3504638671875 317.9382629394531 793.9309692382812 313.67626953125 795.733642578125 C 309.2637939453125 797.5999145507812 304.5766296386719 798.546142578125 299.7449035644531 798.546142578125 Z" stroke="none" fill="#fff"/></g></svg>