<svg xmlns="http://www.w3.org/2000/svg" width="17" height="17" viewBox="0 0 17 17"><defs><style>.a,.d{fill:none;}.a{stroke:#fb9b00;}.b{fill:#ff9b00;}.c{stroke:none;}</style></defs><g transform="translate(-410 -160)"><g transform="translate(1872 1248)"><g class="a" transform="translate(-1462 -1088)"><circle class="c" cx="8.5" cy="8.5" r="8.5"/><circle class="d" cx="8.5" cy="8.5" r="8"/></g></g><path class="b" d="M3.858-15.478V-9.7a1.29,1.29,0,0,1-.286.908.946.946,0,0,1-.725.308A.9.9,0,0,1,2.133-8.8a1.329,1.329,0,0,1-.275-.9V-15.42a1.283,1.283,0,0,1,.275-.893.923.923,0,0,1,.714-.3.957.957,0,0,1,.725.3A1.162,1.162,0,0,1,3.858-15.478Zm-.989-2.065a1.055,1.055,0,0,1-.714-.256.906.906,0,0,1-.3-.725.9.9,0,0,1,.3-.7,1.021,1.021,0,0,1,.707-.275,1.048,1.048,0,0,1,.688.249.888.888,0,0,1,.3.725.914.914,0,0,1-.293.721A1.013,1.013,0,0,1,2.869-17.543Z" transform="translate(415.841 182.699)"/></g></svg>