<svg xmlns="http://www.w3.org/2000/svg" width="50.336" height="36.074" viewBox="0 0 50.336 36.074"><g transform="translate(-564.664 -1532)"><path d="M.072,31.028V6.688q0-.042.127-.8L14.524,18.14.241,31.873a3.581,3.581,0,0,1-.169-.845Zm1.9-26.833a1.821,1.821,0,0,1,.718-.127H41.273a2.393,2.393,0,0,1,.761.127l-14.367,12.3-1.9,1.521L22,21.1l-3.761-3.085-1.9-1.521Zm.042,29.326L16.425,19.7,22,24.225,27.581,19.7l14.41,13.818a2.029,2.029,0,0,1-.718.127H2.692a1.914,1.914,0,0,1-.676-.127ZM29.483,18.14,43.766,5.885a2.522,2.522,0,0,1,.127.8v24.34a3.239,3.239,0,0,1-.127.845Z" transform="translate(564.592 1534.426)" fill="#37352e"/><circle cx="7" cy="7" r="7" transform="translate(601 1532)" fill="#f00000"/><text transform="translate(606 1543)" fill="#fff" font-size="10" font-family="Poppins-Bold, Poppins" font-weight="700"><tspan x="0" y="0">1</tspan></text></g></svg>